<svg xmlns="http://www.w3.org/2000/svg" viewBox="0 0 476 394.5"><defs><style>.cls-1{fill:none;stroke:#000;stroke-miterlimit:10;stroke-width:34px;}</style></defs><title>Asset 1</title><g id="Layer_2" data-name="Layer 2"><g id="Layer_1-2" data-name="Layer 1"><path class="cls-1" d="M238,377.5a27.33,27.33,0,0,1-17.09-5.89c-17.85-14.31-35.07-27.76-50.26-39.63l-.07-.06c-44.53-34.79-83-64.83-109.74-94.42C30.93,204.41,17,173,17,138.77c0-33.29,12.45-64,35.06-86.49C74.94,29.53,106.34,17,140.48,17a117.69,117.69,0,0,1,69.44,22A133,133,0,0,1,232.1,58.84a7.93,7.93,0,0,0,11.8,0A133.38,133.38,0,0,1,266.08,39a117.72,117.72,0,0,1,69.45-22c34.13,0,65.53,12.53,88.41,35.28C446.55,74.76,459,105.48,459,138.77c0,34.27-13.93,65.64-43.83,98.72-26.76,29.6-65.21,59.64-109.73,94.42-15.22,11.89-32.46,25.36-50.36,39.71A27.33,27.33,0,0,1,238,377.5Z"/></g></g></svg>