<svg xmlns="http://www.w3.org/2000/svg" viewBox="0 0 70.87 51.38"><defs><style>.cls-1{fill:#231f20;}</style></defs><title>M_logo</title><g id="Layer_2" data-name="Layer 2"><g id="Layer_1-2" data-name="Layer 1"><path class="cls-1" d="M70.36,36.7C71.2,27.26,72.74,2.07,58.47.36c-15.3-1.84-15.55,22.58-16.15,31.9-.21,3.26,4.65,3.13,5,0,.78-6.91.58-14-1.86-20.62C43.86,7.33,40.57-.22,35,0s-8.16,5.5-9.79,10.05A58,58,0,0,0,22,32.26c.13,3.26,4.68,3.16,5,0a57,57,0,0,0-1.66-19.51c-.93-3.67-2.42-9.26-6.19-11.09s-8.85-.14-11.71,2.5c-3.81,3.52-5.29,9-6.06,14-1.36,8.73-4,26.27,5.75,31C11.06,51,16,51.19,20.3,51.25c2,0,7.11.74,8.35-1.48A2.53,2.53,0,0,0,26.49,46c-.51,0-1,0-1.54.05v5c13.52-.85,27.45-1.21,40.93.3,3.19.36,3.16-4.64,0-5C52.4,44.85,38.47,45.21,25,46.06c-3.19.21-3.23,5.18,0,5,.51,0,1-.08,1.54-.05l-2.16-3.76c1.16-2.08,2.5-.91-.1-1.06-1.3-.07-2.63.08-3.93.06a33,33,0,0,1-9.7-1.15C2.91,42.58,5.26,27.58,6,21.15c.44-3.92,1.17-8.39,3.47-11.7,1.8-2.58,6.06-5.06,8.45-2.17s3,7.8,3.53,11.2A52.58,52.58,0,0,1,22,32.26h5a54.51,54.51,0,0,1,1.17-14.41,51,51,0,0,1,1.89-6.48C31.07,8.58,32.47,4.24,36,6c3.76,1.88,5.37,8.34,6.12,12.14a46.24,46.24,0,0,1,.24,14.14h5c.34-5.31.08-10.85,1.47-16,1.08-4.06,4.75-13.34,10.6-10.47,4,2,5.06,8,5.63,11.94a83.19,83.19,0,0,1,.34,19c-.29,3.21,4.71,3.19,5,0Z"/></g></g></svg>