<svg xmlns="http://www.w3.org/2000/svg" viewBox="0 0 167.42 57.37"><defs><style>.cls-1{fill:#231f20;}</style></defs><title>mulli_logo</title><g id="Layer_2" data-name="Layer 2"><g id="Layer_1-2" data-name="Layer 1"><path class="cls-1" d="M70.36,42.69c.84-9.44,2.38-34.63-11.89-36.34-15.3-1.84-15.55,22.58-16.15,31.9-.21,3.26,4.65,3.13,5,0,.78-6.91.58-14-1.86-20.62C43.86,13.32,40.57,5.77,35,6s-8.16,5.49-9.79,10A58,58,0,0,0,22,38.25c.13,3.26,4.68,3.16,5,0a57,57,0,0,0-1.66-19.51c-.93-3.66-2.42-9.26-6.19-11.09s-8.85-.14-11.71,2.5c-3.81,3.52-5.29,9-6.06,14-1.36,8.73-4,26.27,5.75,31C11.06,57,16,57.18,20.3,57.24c2,0,7.11.75,8.35-1.47A2.54,2.54,0,0,0,26.49,52a13.22,13.22,0,0,0-1.54.06v5c13.52-.86,27.45-1.22,40.93.3,3.19.35,3.16-4.65,0-5C52.4,50.84,38.47,51.2,25,52.06c-3.19.2-3.23,5.17,0,5A13.22,13.22,0,0,1,26.49,57l-2.16-3.76c1.16-2.08,2.5-.91-.1-1.06-1.3-.07-2.63.08-3.93.06a33,33,0,0,1-9.7-1.15C2.91,48.57,5.26,33.57,6,27.14c.44-3.91,1.17-8.39,3.47-11.7,1.8-2.58,6.06-5.06,8.45-2.17s3,7.8,3.53,11.2A52.6,52.6,0,0,1,22,38.25h5a54.51,54.51,0,0,1,1.17-14.41,50.4,50.4,0,0,1,1.89-6.47c1-2.8,2.42-7.14,5.91-5.4,3.76,1.88,5.37,8.34,6.12,12.15a46.17,46.17,0,0,1,.24,14.13h5c.34-5.31.08-10.85,1.47-16,1.08-4.06,4.75-13.34,10.6-10.47,4,2,5.06,8,5.63,11.94a83.19,83.19,0,0,1,.34,19c-.29,3.21,4.71,3.19,5,0Z"/><path class="cls-1" d="M75.48,56.21A23.43,23.43,0,0,0,86.42,33.35c-.4-3.11-4.84-3.31-5,0-.31,6.94-2.85,21.59,8,21.57,9.66,0,11.58-10.36,11.78-18,.09-3.28-4.65-3.12-5,0-.54,4.81-.81,10.34,2.91,14,2.92,2.91,7.56,3.84,10.92,1.14,3.07-2.46,4.26-7.23,5.58-10.76,2.34-6.27,4.38-12.81,4.65-19.54.17-4.22,0-10-2.59-13.53a4.88,4.88,0,0,0-8-.34c-3.12,3.7-3.17,10.51-3.38,15.06a59.64,59.64,0,0,0,2,18.47c2.29,8.36,8.82,16.43,17.9,10.34S140,32.33,141.56,22.18c.81-5.43,2.83-23.8-7.65-22.06-3.49.57-5.59,4-6.69,7.05-2.18,6.1-2.8,13.36-2.88,19.79-.11,8.8,0,28,12.32,28.86,13,.93,15.76-13.81,15.67-23.55,0-3.29-4.65-3.13-5,0-.81,7.33-.8,16.62,6.76,20.57A9.24,9.24,0,0,0,167.34,47c.75-3.13-4.07-4.47-4.82-1.33-1.46,6.12-8.34,2.1-9.85-1.86-1.38-3.61-.75-7.83-.34-11.56h-5c0,4.3.14,9-1.83,13s-7.8,7.91-11.8,4.06c-3.08-3-3.47-9.3-3.92-13.34a73.88,73.88,0,0,1-.31-12.62,55.31,55.31,0,0,1,2.17-13.58A11,11,0,0,1,133,6.63c2.55-.88,3.84-.32,3.89,1.68.58,1.59.34,4,.34,5.68a50.28,50.28,0,0,1-6.37,24.44c-2,3.51-4.56,8.15-8.37,9.89-5.87,2.69-8.13-3.91-9.28-8.15a54.36,54.36,0,0,1-1.91-13.54c0-4.15-.32-9.85,1.48-13.6,1.13-2.35,1.15-1.25,1.82.92a23.55,23.55,0,0,1,.7,7.89A50.53,50.53,0,0,1,112.58,35c-1.13,3.52-2.19,7.73-4.12,10.9-2.35,3.9-5.84,3.4-7.25-1-.79-2.46-.28-5.39,0-7.89h-5c-.12,4.34-.42,13.2-6.78,13-5.3-.22-3.17-13.07-3-16.57h-5A18.57,18.57,0,0,1,73,51.89c-2.71,1.72-.2,6,2.53,4.32Z"/><path class="cls-1" d="M151.71,22.41c3.22,0,3.23-5,0-5s-3.22,5,0,5Z"/></g></g></svg>